<svg width="24" height="25" viewBox="0 0 24 25" fill="none" xmlns="http://www.w3.org/2000/svg">
<path d="M13 12.5H20V14H13M13 10H20V11.5H13M13 15H20V16.5H13M21 4.5H3C2.46957 4.5 1.96086 4.71071 1.58579 5.08579C1.21071 5.46086 1 5.96957 1 6.5V19.5C1 20.0304 1.21071 20.5391 1.58579 20.9142C1.96086 21.2893 2.46957 21.5 3 21.5H21C21.5304 21.5 22.0391 21.2893 22.4142 20.9142C22.7893 20.5391 23 20.0304 23 19.5V6.5C23 5.96957 22.7893 5.46086 22.4142 5.08579C22.0391 4.71071 21.5304 4.5 21 4.5ZM21 19.5H12V6.5H21" fill="#CAC4D0"/>
</svg>
